<svg xmlns="http://www.w3.org/2000/svg" xmlns:xlink="http://www.w3.org/1999/xlink" width="220" zoomAndPan="magnify" viewBox="0 0 165 82.499998" height="110" preserveAspectRatio="xMidYMid meet" version="1.0"><defs><clipPath id="8dc2d1255f"><path d="M 0.496094 0 L 164.503906 0 L 164.503906 82.003906 L 0.496094 82.003906 Z M 0.496094 0 " clip-rule="nonzero"/></clipPath></defs><g clip-path="url(#8dc2d1255f)"><path fill="#ffffff" d="M 0.496094 0 L 164.503906 0 L 164.503906 82.003906 L 0.496094 82.003906 Z M 0.496094 0 " fill-opacity="1" fill-rule="nonzero"/></g><path fill="#00558c" d="M 31.28125 61.675781 C 31.28125 60.117188 32.371094 58.894531 34.941406 58.894531 C 35.640625 58.894531 36.34375 59 37.015625 59.179688 L 37.015625 58.347656 C 37.015625 57.515625 36.5 56.816406 35.253906 56.816406 C 34.164062 56.816406 33.589844 57.414062 33.566406 58.140625 L 31.695312 58.140625 C 31.695312 56.425781 33.046875 55.175781 35.277344 55.175781 C 37.640625 55.175781 38.964844 56.554688 38.964844 58.324219 L 38.964844 64.300781 L 37.226562 64.300781 L 37.09375 63.234375 L 37.042969 63.234375 C 36.523438 63.988281 35.589844 64.457031 34.394531 64.457031 C 32.421875 64.457031 31.28125 63.234375 31.28125 61.675781 Z M 37.015625 60.949219 L 37.015625 60.660156 C 36.394531 60.453125 35.746094 60.351562 35.070312 60.351562 C 33.875 60.351562 33.253906 60.84375 33.253906 61.648438 C 33.253906 62.378906 33.773438 62.921875 34.863281 62.921875 C 36.160156 62.898438 37.015625 61.988281 37.015625 60.949219 Z M 37.015625 60.949219 " fill-opacity="1" fill-rule="nonzero"/><path fill="#00558c" d="M 40.625 61.335938 L 42.597656 61.335938 C 42.597656 62.222656 43.296875 62.792969 44.414062 62.792969 C 45.53125 62.792969 46.128906 62.402344 46.128906 61.78125 C 46.128906 61.285156 45.765625 60.921875 44.933594 60.765625 L 43.351562 60.480469 C 41.898438 60.195312 40.859375 59.363281 40.859375 57.828125 C 40.859375 56.347656 42.15625 55.230469 44.3125 55.230469 C 46.464844 55.230469 47.890625 56.425781 47.890625 58.167969 L 45.945312 58.167969 C 45.917969 57.359375 45.296875 56.816406 44.285156 56.816406 C 43.402344 56.816406 42.777344 57.179688 42.777344 57.828125 C 42.777344 58.375 43.21875 58.6875 43.972656 58.816406 L 45.503906 59.101562 C 47.0625 59.441406 48.101562 60.0625 48.101562 61.78125 C 48.101562 63.496094 46.464844 64.484375 44.386719 64.484375 C 42 64.457031 40.675781 63.234375 40.625 61.335938 Z M 40.625 61.335938 " fill-opacity="1" fill-rule="nonzero"/><path fill="#00558c" d="M 49.347656 61.335938 L 51.320312 61.335938 C 51.320312 62.222656 52.019531 62.792969 53.136719 62.792969 C 54.25 62.792969 54.847656 62.402344 54.847656 61.78125 C 54.847656 61.285156 54.484375 60.921875 53.65625 60.765625 L 52.070312 60.480469 C 50.617188 60.195312 49.578125 59.363281 49.578125 57.828125 C 49.578125 56.347656 50.878906 55.230469 53.03125 55.230469 C 55.1875 55.230469 56.613281 56.425781 56.613281 58.167969 L 54.691406 58.167969 C 54.667969 57.359375 54.042969 56.816406 53.03125 56.816406 C 52.148438 56.816406 51.527344 57.179688 51.527344 57.828125 C 51.527344 58.375 51.96875 58.6875 52.71875 58.816406 L 54.25 59.101562 C 55.808594 59.441406 56.847656 60.0625 56.847656 61.78125 C 56.847656 63.496094 55.210938 64.484375 53.136719 64.484375 C 50.746094 64.457031 49.398438 63.234375 49.347656 61.335938 Z M 49.347656 61.335938 " fill-opacity="1" fill-rule="nonzero"/><path fill="#00558c" d="M 58.480469 52.707031 C 58.480469 51.925781 58.921875 51.460938 59.753906 51.460938 C 60.585938 51.460938 61.027344 51.925781 61.027344 52.707031 C 61.027344 53.488281 60.585938 53.957031 59.753906 53.957031 C 58.921875 53.957031 58.480469 53.488281 58.480469 52.707031 Z M 58.769531 55.359375 L 60.738281 55.359375 L 60.738281 64.328125 L 58.769531 64.328125 Z M 58.769531 55.359375 " fill-opacity="1" fill-rule="nonzero"/><path fill="#00558c" d="M 62.558594 59.828125 C 62.558594 57.074219 64.035156 55.175781 66.789062 55.175781 C 69.304688 55.175781 70.550781 56.683594 70.679688 58.609375 L 68.707031 58.609375 C 68.628906 57.59375 67.902344 56.945312 66.789062 56.945312 C 65.257812 56.945312 64.582031 58.089844 64.582031 59.828125 C 64.582031 61.570312 65.257812 62.742188 66.789062 62.742188 C 67.902344 62.742188 68.605469 62.089844 68.707031 61.078125 L 70.679688 61.078125 C 70.523438 63.054688 69.28125 64.484375 66.8125 64.484375 C 64.0625 64.457031 62.558594 62.585938 62.558594 59.828125 Z M 62.558594 59.828125 " fill-opacity="1" fill-rule="nonzero"/><path fill="#00558c" d="M 79.921875 55.359375 L 79.921875 60.921875 C 79.921875 62.921875 78.597656 64.457031 76.054688 64.457031 C 73.511719 64.457031 72.1875 62.898438 72.1875 60.921875 L 72.1875 55.359375 L 74.160156 55.359375 L 74.160156 60.609375 C 74.160156 61.859375 74.703125 62.636719 76.027344 62.636719 C 77.351562 62.636719 77.898438 61.859375 77.898438 60.609375 L 77.898438 55.359375 Z M 79.921875 55.359375 " fill-opacity="1" fill-rule="nonzero"/><path fill="#00558c" d="M 81.816406 55.359375 L 83.476562 55.359375 L 83.660156 56.789062 L 83.738281 56.789062 C 84.101562 55.828125 85.035156 55.203125 86.074219 55.230469 L 86.800781 55.230469 L 86.800781 57.074219 L 86.019531 57.074219 C 84.515625 57.074219 83.738281 58.113281 83.738281 59.933594 L 83.738281 64.328125 L 81.816406 64.328125 Z M 81.816406 55.359375 " fill-opacity="1" fill-rule="nonzero"/><path fill="#00558c" d="M 87.578125 61.675781 C 87.578125 60.117188 88.667969 58.894531 91.238281 58.894531 C 91.9375 58.894531 92.640625 59 93.3125 59.179688 L 93.3125 58.347656 C 93.3125 57.515625 92.792969 56.816406 91.550781 56.816406 C 90.457031 56.816406 89.886719 57.414062 89.863281 58.140625 L 87.992188 58.140625 C 87.992188 56.425781 89.316406 55.175781 91.601562 55.175781 C 93.960938 55.175781 95.285156 56.554688 95.285156 58.324219 L 95.285156 64.300781 L 93.546875 64.300781 L 93.417969 63.234375 L 93.367188 63.234375 C 92.847656 63.988281 91.914062 64.457031 90.71875 64.457031 C 88.71875 64.457031 87.578125 63.234375 87.578125 61.675781 Z M 93.339844 60.949219 L 93.339844 60.660156 C 92.71875 60.453125 92.066406 60.351562 91.394531 60.351562 C 90.199219 60.351562 89.578125 60.84375 89.578125 61.648438 C 89.578125 62.378906 90.09375 62.921875 91.1875 62.921875 C 92.484375 62.898438 93.339844 61.988281 93.339844 60.949219 Z M 93.339844 60.949219 " fill-opacity="1" fill-rule="nonzero"/><path fill="#00558c" d="M 97.027344 62.636719 L 101.722656 57.074219 L 101.722656 56.996094 L 97.050781 56.996094 L 97.050781 55.308594 L 104.109375 55.308594 L 104.109375 56.96875 L 99.4375 62.535156 L 99.4375 62.613281 L 104.136719 62.613281 L 104.136719 64.300781 L 97.027344 64.300781 Z M 97.027344 62.636719 " fill-opacity="1" fill-rule="nonzero"/><path fill="#00558c" d="M 105.929688 52.707031 C 105.929688 51.925781 106.371094 51.460938 107.199219 51.460938 C 108.03125 51.460938 108.472656 51.925781 108.472656 52.707031 C 108.472656 53.488281 108.03125 53.957031 107.199219 53.957031 C 106.371094 53.957031 105.929688 53.488281 105.929688 52.707031 Z M 106.214844 55.359375 L 108.1875 55.359375 L 108.1875 64.328125 L 106.214844 64.328125 Z M 106.214844 55.359375 " fill-opacity="1" fill-rule="nonzero"/><path fill="#00558c" d="M 109.949219 59.828125 C 109.949219 57.203125 111.378906 55.175781 114.183594 55.175781 C 116.984375 55.175781 118.414062 57.203125 118.414062 59.828125 C 118.414062 62.457031 117.011719 64.484375 114.183594 64.484375 C 111.351562 64.484375 109.949219 62.457031 109.949219 59.828125 Z M 116.414062 59.828125 C 116.414062 58.035156 115.6875 56.945312 114.183594 56.945312 C 112.675781 56.945312 111.949219 58.0625 111.949219 59.828125 C 111.949219 61.597656 112.675781 62.714844 114.183594 62.714844 C 115.6875 62.714844 116.414062 61.648438 116.414062 59.828125 Z M 116.414062 59.828125 " fill-opacity="1" fill-rule="nonzero"/><path fill="#00558c" d="M 119.839844 55.359375 L 121.605469 55.359375 L 121.761719 56.527344 L 121.839844 56.527344 C 122.332031 55.773438 123.164062 55.203125 124.460938 55.203125 C 126.457031 55.203125 127.703125 56.449219 127.703125 58.476562 L 127.703125 64.351562 L 125.730469 64.351562 L 125.730469 58.972656 C 125.730469 57.722656 125.160156 56.996094 123.914062 56.996094 C 122.667969 56.996094 121.863281 57.878906 121.863281 59.386719 L 121.863281 64.351562 L 119.839844 64.351562 Z M 119.839844 55.359375 " fill-opacity="1" fill-rule="nonzero"/><path fill="#00558c" d="M 129.3125 52.707031 C 129.3125 51.925781 129.753906 51.460938 130.585938 51.460938 C 131.417969 51.460938 131.855469 51.925781 131.855469 52.707031 C 131.855469 53.488281 131.417969 53.957031 130.585938 53.957031 C 129.753906 53.957031 129.3125 53.488281 129.3125 52.707031 Z M 129.597656 55.359375 L 131.570312 55.359375 L 131.570312 64.328125 L 129.597656 64.328125 Z M 129.597656 55.359375 " fill-opacity="1" fill-rule="nonzero"/><path fill="#00558c" d="M 46.128906 32.09375 C 47.761719 33.367188 48.828125 35.210938 49.113281 37.265625 L 44.542969 37.265625 C 44 35.445312 42.285156 34.199219 40.210938 34.199219 C 33.566406 34.199219 33.617188 45.066406 40.234375 45.066406 C 42.285156 45.066406 43.972656 43.894531 44.492188 42.152344 L 49.058594 42.152344 C 48.359375 46.46875 44.648438 49.144531 40.15625 49.144531 C 34.527344 49.144531 30.710938 44.910156 30.710938 39.65625 C 30.710938 34.328125 34.527344 30.167969 40.15625 30.167969 C 42.492188 30.089844 44.492188 30.792969 46.128906 32.09375 " fill-opacity="1" fill-rule="nonzero"/><path fill="#00558c" d="M 59.78125 30.089844 C 65.335938 30.011719 69.511719 34.328125 69.410156 39.578125 C 69.410156 44.882812 65.386719 49.066406 59.78125 49.066406 C 56.949219 49.066406 54.667969 48.183594 52.851562 46.390625 C 51.03125 44.597656 50.175781 42.285156 50.175781 39.578125 C 50.175781 34.25 54.09375 30.089844 59.78125 30.089844 M 56.09375 43.53125 C 58.976562 46.519531 64.867188 45.039062 64.867188 39.605469 C 64.867188 36.277344 62.582031 34.171875 59.78125 34.171875 C 54.691406 34.171875 53.316406 40.410156 56.09375 43.53125 " fill-opacity="1" fill-rule="nonzero"/><path fill="#00558c" d="M 70.785156 48.679688 L 70.785156 30.585938 L 75.042969 30.585938 L 75.042969 32.796875 L 75.273438 32.796875 C 77.6875 28.453125 86.878906 29.183594 86.878906 36.851562 L 86.878906 48.679688 L 82.414062 48.679688 L 82.414062 38.019531 C 82.414062 32.949219 75.222656 33.160156 75.222656 38.332031 L 75.222656 48.679688 Z M 70.785156 48.679688 " fill-opacity="1" fill-rule="nonzero"/><path fill="#c8102e" d="M 88.175781 34.121094 L 88.175781 30.585938 L 90.199219 30.585938 C 90.976562 30.585938 91.496094 30.066406 91.496094 29.207031 L 91.496094 25.570312 L 95.703125 25.570312 L 95.703125 30.558594 L 100.683594 30.558594 L 100.683594 34.148438 L 95.703125 34.148438 L 95.703125 42.464844 C 95.703125 44.023438 96.53125 44.933594 98.167969 44.933594 L 100.582031 44.933594 L 100.582031 48.652344 L 97.234375 48.652344 C 93.417969 48.652344 91.210938 46.496094 91.210938 42.621094 L 91.210938 34.148438 Z M 88.175781 34.121094 " fill-opacity="1" fill-rule="nonzero"/><path fill="#c8102e" d="M 109.976562 30.089844 C 115.792969 30.089844 118.933594 34.378906 118.933594 39.476562 L 118.933594 40.878906 L 105.203125 40.878906 C 105.332031 43.636719 107.25 45.480469 110.105469 45.480469 C 112.261719 45.480469 113.949219 44.492188 114.597656 42.960938 L 118.75 42.960938 C 117.816406 46.675781 114.597656 49.042969 109.949219 49.042969 C 97.753906 49.121094 97.933594 30.144531 109.976562 30.089844 M 114.675781 37.761719 C 114.128906 32.300781 105.902344 32.40625 105.253906 37.761719 Z M 114.675781 37.761719 " fill-opacity="1" fill-rule="nonzero"/><path fill="#c8102e" d="M 119.839844 20.003906 C 109.148438 17.355469 97.960938 17.355469 87.292969 20.003906 C 87.292969 20.003906 87.835938 22.136719 88.175781 23.460938 C 98.269531 20.941406 108.859375 20.941406 118.957031 23.460938 Z M 119.839844 20.003906 " fill-opacity="1" fill-rule="nonzero"/><path fill="#00558c" d="M 118.75 47.558594 C 118.75 46.804688 119.191406 46.285156 120.023438 46.285156 C 120.851562 46.285156 121.269531 46.78125 121.269531 47.558594 C 121.269531 48.339844 120.828125 48.835938 120.023438 48.835938 C 119.21875 48.835938 118.75 48.339844 118.75 47.558594 Z M 118.75 47.558594 " fill-opacity="1" fill-rule="nonzero"/><path fill="#00558c" d="M 122.695312 37.03125 C 122.695312 36.277344 123.136719 35.785156 123.96875 35.785156 C 124.796875 35.785156 125.238281 36.253906 125.238281 37.03125 C 125.238281 37.8125 124.796875 38.28125 123.96875 38.28125 C 123.136719 38.28125 122.695312 37.8125 122.695312 37.03125 Z M 122.980469 39.65625 L 124.953125 39.65625 L 124.953125 48.625 L 122.980469 48.625 Z M 122.980469 39.65625 " fill-opacity="1" fill-rule="nonzero"/><path fill="#00558c" d="M 127.652344 46.207031 L 127.652344 41.375 L 126.171875 41.375 L 126.171875 39.683594 L 127.730469 39.683594 L 127.730469 37.785156 L 129.445312 37.292969 L 129.625 37.292969 L 129.625 39.683594 L 131.804688 39.683594 L 131.804688 41.375 L 129.625 41.375 L 129.625 45.871094 C 129.625 46.726562 129.988281 47.09375 130.792969 47.09375 C 131.078125 47.09375 131.390625 47.066406 131.675781 46.960938 L 131.855469 46.960938 L 131.855469 48.625 C 131.363281 48.757812 130.84375 48.835938 130.324219 48.808594 C 128.40625 48.808594 127.652344 47.769531 127.652344 46.207031 Z M 127.652344 46.207031 " fill-opacity="1" fill-rule="nonzero"/></svg>