<svg xmlns="http://www.w3.org/2000/svg" width="165" viewBox="0 0 165 82.5" height="82.5" version="1.0"><defs><clipPath id="a"><path d="M 0.496094 0 L 164.503906 0 L 164.503906 82.003906 L 0.496094 82.003906 Z M 0.496094 0"/></clipPath><clipPath id="b"><path d="M 144 36 L 156.300781 36 L 156.300781 57 L 144 57 Z M 144 36"/></clipPath><clipPath id="c"><path d="M 8.699219 23.75 L 23 23.75 L 23 54 L 8.699219 54 Z M 8.699219 23.75"/></clipPath><clipPath id="d"><path d="M 17 23.75 L 33 23.75 L 33 58.042969 L 17 58.042969 Z M 17 23.75"/></clipPath><clipPath id="e"><path d="M 27 28 L 42 28 L 42 58.042969 L 27 58.042969 Z M 27 28"/></clipPath></defs><g clip-path="url(#a)" fill="#FFF"><path d="M 0.496094 0 L 164.503906 0 L 164.503906 89.457031 L 0.496094 89.457031 Z M 0.496094 0"/><path d="M 0.496094 0 L 164.503906 0 L 164.503906 82.003906 L 0.496094 82.003906 Z M 0.496094 0"/><path d="M 0.496094 0 L 164.503906 0 L 164.503906 82.003906 L 0.496094 82.003906 Z M 0.496094 0"/></g><path d="M 58.910156 50.359375 L 58.910156 42.472656 L 51.933594 42.472656 L 51.933594 50.359375 L 48.378906 50.359375 L 48.378906 31.65625 L 51.933594 31.65625 L 51.933594 39.351562 L 58.910156 39.351562 L 58.910156 31.65625 L 62.460938 31.65625 L 62.460938 50.359375 Z M 58.910156 50.359375"/><path d="M 75.488281 50.359375 L 72.664062 50.359375 L 72.410156 49.433594 C 71.164062 50.238281 69.800781 50.644531 68.3125 50.644531 C 65.796875 50.644531 64.726562 48.929688 64.726562 46.570312 C 64.726562 43.789062 65.941406 42.722656 68.738281 42.722656 L 72.039062 42.722656 L 72.039062 41.289062 C 72.039062 39.773438 71.617188 39.242188 69.414062 39.242188 C 68.128906 39.25 66.859375 39.386719 65.601562 39.648438 L 65.179688 37.035156 C 66.722656 36.613281 68.296875 36.394531 69.898438 36.390625 C 74.21875 36.390625 75.492188 37.90625 75.492188 41.335938 Z M 72.039062 45.191406 L 69.5 45.191406 C 68.371094 45.191406 68.0625 45.5 68.0625 46.542969 C 68.0625 47.496094 68.371094 47.917969 69.445312 47.917969 C 70.375 47.90625 71.238281 47.667969 72.042969 47.214844 Z M 72.039062 45.191406"/><path d="M 82.15625 50.640625 C 80.535156 50.613281 78.953125 50.351562 77.410156 49.851562 L 77.886719 47.242188 C 79.226562 47.621094 80.59375 47.820312 81.984375 47.832031 C 83.507812 47.832031 83.738281 47.476562 83.738281 46.453125 C 83.738281 45.613281 83.566406 45.1875 81.335938 44.65625 C 77.972656 43.839844 77.578125 43 77.578125 40.359375 C 77.578125 37.609375 78.792969 36.402344 82.71875 36.402344 C 84.113281 36.402344 85.488281 36.5625 86.84375 36.878906 L 86.488281 39.601562 C 85.238281 39.371094 83.976562 39.242188 82.707031 39.207031 C 81.210938 39.207031 80.953125 39.5625 80.953125 40.386719 C 80.953125 41.484375 81.039062 41.570312 82.90625 42.046875 C 86.757812 43.058594 87.125 43.5625 87.125 46.359375 C 87.125 49.011719 86.304688 50.640625 82.15625 50.640625 Z M 82.15625 50.640625"/><path d="M 97.378906 50.359375 L 97.378906 40.824219 C 97.378906 40.09375 97.070312 39.726562 96.277344 39.726562 C 95.433594 39.726562 93.933594 40.234375 92.6875 40.878906 L 92.6875 50.359375 L 89.242188 50.359375 L 89.242188 31.09375 L 92.6875 30.617188 L 92.6875 37.722656 C 94.269531 36.917969 95.945312 36.476562 97.714844 36.402344 C 100.003906 36.402344 100.820312 38 100.820312 40.445312 L 100.820312 50.359375 Z M 97.378906 50.359375"/><path d="M 103.367188 34.746094 L 103.367188 30.789062 L 106.8125 30.789062 L 106.8125 34.746094 Z M 103.367188 50.359375 L 103.367188 36.683594 L 106.8125 36.683594 L 106.8125 50.359375 Z M 103.367188 50.359375"/><path d="M 109.214844 36.796875 C 109.214844 33.371094 111.21875 31.378906 115.90625 31.378906 C 117.636719 31.378906 119.339844 31.582031 121.019531 31.996094 L 120.628906 35.054688 C 119.101562 34.765625 117.5625 34.609375 116.007812 34.578125 C 113.550781 34.578125 112.761719 35.421875 112.761719 37.402344 L 112.761719 44.59375 C 112.761719 46.585938 113.554688 47.417969 116.007812 47.417969 C 117.5625 47.386719 119.101562 47.230469 120.628906 46.941406 L 121.023438 50.003906 C 119.347656 50.414062 117.644531 50.621094 115.910156 50.621094 C 111.21875 50.621094 109.214844 48.628906 109.214844 45.203125 Z M 109.214844 36.796875"/><path d="M 128.089844 50.640625 C 123.371094 50.640625 122.101562 48.058594 122.101562 45.25 L 122.101562 41.792969 C 122.101562 38.984375 123.375 36.402344 128.089844 36.402344 C 132.804688 36.402344 134.074219 38.984375 134.074219 41.792969 L 134.074219 45.25 C 134.066406 48.058594 132.796875 50.640625 128.089844 50.640625 Z M 128.089844 39.335938 C 126.253906 39.335938 125.546875 40.152344 125.546875 41.695312 L 125.546875 45.363281 C 125.546875 46.90625 126.257812 47.722656 128.089844 47.722656 C 129.917969 47.722656 130.628906 46.90625 130.628906 45.363281 L 130.628906 41.679688 C 130.621094 40.136719 129.914062 39.320312 128.089844 39.320312 Z M 128.089844 39.335938"/><path d="M 143.214844 39.546875 C 141.949219 40.117188 140.734375 40.78125 139.570312 41.539062 L 139.570312 50.371094 L 136.125 50.371094 L 136.125 36.683594 L 139.035156 36.683594 L 139.261719 38.199219 C 140.386719 37.441406 141.59375 36.839844 142.878906 36.402344 Z M 143.214844 39.546875"/><g clip-path="url(#b)"><path d="M 156.285156 45.8125 C 156.285156 48.84375 154.925781 50.640625 151.734375 50.640625 C 150.5 50.625 149.273438 50.496094 148.0625 50.242188 L 148.0625 55.894531 L 144.617188 56.371094 L 144.617188 36.683594 L 147.355469 36.683594 L 147.710938 37.835938 C 149 36.878906 150.449219 36.402344 152.058594 36.402344 C 154.828125 36.402344 156.292969 38.03125 156.292969 41.152344 Z M 148.066406 47.355469 C 149.070312 47.574219 150.089844 47.691406 151.117188 47.707031 C 152.363281 47.707031 152.839844 47.117188 152.839844 45.882812 L 152.839844 41.058594 C 152.839844 39.9375 152.417969 39.316406 151.144531 39.316406 C 149.96875 39.359375 148.941406 39.773438 148.066406 40.554688 Z M 148.066406 47.355469"/></g><g clip-path="url(#c)"><path d="M 22.296875 23.75 L 8.714844 31.539062 L 8.714844 50.242188 L 13.816406 53.171875 L 13.816406 34.46875 L 22.296875 29.601562 Z M 22.296875 23.75"/></g><g clip-path="url(#d)"><path d="M 27.714844 23.75 L 27.714844 38.648438 L 22.296875 38.648438 L 22.296875 33.085938 L 17.191406 36.015625 L 17.191406 55.101562 L 22.296875 58.035156 L 22.296875 43.183594 L 27.714844 43.183594 L 27.714844 48.703125 L 32.816406 45.777344 L 32.816406 26.679688 Z M 27.714844 23.75"/></g><g clip-path="url(#e)"><path d="M 27.714844 58.042969 L 41.292969 50.253906 L 41.292969 31.550781 L 36.191406 28.621094 L 36.191406 47.328125 L 27.714844 52.195312 Z M 27.714844 58.042969"/></g></svg>