<svg xmlns="http://www.w3.org/2000/svg" xmlns:xlink="http://www.w3.org/1999/xlink" width="220" zoomAndPan="magnify" viewBox="0 0 165 82.499998" height="110" preserveAspectRatio="xMidYMid meet" version="1.0"><defs><clipPath id="4d024ee8c7"><path d="M 0.496094 0 L 164.503906 0 L 164.503906 82.003906 L 0.496094 82.003906 Z M 0.496094 0 " clip-rule="nonzero"/></clipPath><clipPath id="e8f35e6110"><path d="M 8.699219 13.75 L 156.300781 13.75 L 156.300781 68.171875 L 8.699219 68.171875 Z M 8.699219 13.75 " clip-rule="nonzero"/></clipPath></defs><g clip-path="url(#4d024ee8c7)"><path fill="#ffffff" d="M 0.496094 0 L 164.503906 0 L 164.503906 82.003906 L 0.496094 82.003906 Z M 0.496094 0 " fill-opacity="1" fill-rule="nonzero"/></g><path fill="#010334" d="M 130.199219 28.332031 C 129.367188 28.332031 128.546875 28.414062 127.730469 28.574219 C 126.917969 28.738281 126.125 28.976562 125.359375 29.292969 C 124.59375 29.613281 123.863281 30 123.171875 30.460938 C 122.484375 30.921875 121.84375 31.445312 121.257812 32.03125 C 120.667969 32.617188 120.144531 33.257812 119.683594 33.945312 C 119.222656 34.636719 118.832031 35.363281 118.515625 36.128906 C 118.199219 36.894531 117.957031 37.683594 117.796875 38.496094 C 117.632812 39.3125 117.554688 40.132812 117.554688 40.960938 C 117.554688 41.789062 117.632812 42.613281 117.796875 43.425781 C 117.957031 44.238281 118.199219 45.027344 118.515625 45.792969 C 118.832031 46.558594 119.222656 47.289062 119.683594 47.976562 C 120.144531 48.667969 120.667969 49.304688 121.257812 49.890625 C 121.84375 50.476562 122.484375 51 123.171875 51.460938 C 123.863281 51.921875 124.59375 52.3125 125.359375 52.628906 C 126.125 52.945312 126.917969 53.183594 127.730469 53.347656 C 128.546875 53.507812 129.367188 53.589844 130.199219 53.589844 C 131.027344 53.589844 131.851562 53.507812 132.664062 53.347656 C 133.480469 53.183594 134.269531 52.945312 135.035156 52.628906 C 135.804688 52.3125 136.53125 51.921875 137.222656 51.460938 C 137.914062 51 138.550781 50.476562 139.140625 49.890625 C 139.726562 49.304688 140.25 48.667969 140.710938 47.976562 C 141.171875 47.289062 141.5625 46.558594 141.878906 45.792969 C 142.199219 45.027344 142.4375 44.238281 142.601562 43.425781 C 142.761719 42.613281 142.84375 41.789062 142.84375 40.960938 C 142.84375 40.132812 142.761719 39.3125 142.601562 38.496094 C 142.4375 37.683594 142.199219 36.894531 141.878906 36.128906 C 141.5625 35.363281 141.171875 34.636719 140.710938 33.945312 C 140.25 33.257812 139.726562 32.617188 139.140625 32.03125 C 138.550781 31.445312 137.914062 30.921875 137.222656 30.460938 C 136.53125 30 135.804688 29.613281 135.035156 29.292969 C 134.269531 28.976562 133.480469 28.738281 132.664062 28.574219 C 131.851562 28.414062 131.027344 28.332031 130.199219 28.332031 Z M 130.199219 48.046875 C 129.730469 48.046875 129.269531 48 128.8125 47.910156 C 128.359375 47.820312 127.914062 47.6875 127.484375 47.507812 C 127.054688 47.328125 126.644531 47.113281 126.257812 46.851562 C 125.871094 46.59375 125.511719 46.300781 125.183594 45.972656 C 124.855469 45.644531 124.558594 45.285156 124.300781 44.898438 C 124.042969 44.511719 123.824219 44.105469 123.644531 43.675781 C 123.46875 43.246094 123.332031 42.800781 123.242188 42.34375 C 123.152344 41.890625 123.105469 41.429688 123.105469 40.964844 C 123.105469 40.5 123.152344 40.039062 123.242188 39.582031 C 123.332031 39.125 123.46875 38.683594 123.644531 38.253906 C 123.824219 37.824219 124.042969 37.414062 124.300781 37.027344 C 124.558594 36.640625 124.855469 36.285156 125.183594 35.953125 C 125.511719 35.625 125.871094 35.332031 126.257812 35.074219 C 126.644531 34.816406 127.054688 34.597656 127.484375 34.417969 C 127.914062 34.242188 128.359375 34.105469 128.8125 34.015625 C 129.269531 33.925781 129.730469 33.878906 130.199219 33.878906 C 130.664062 33.878906 131.125 33.925781 131.582031 34.015625 C 132.039062 34.105469 132.480469 34.242188 132.914062 34.417969 C 133.34375 34.597656 133.75 34.816406 134.136719 35.074219 C 134.527344 35.332031 134.882812 35.625 135.214844 35.953125 C 135.542969 36.285156 135.835938 36.640625 136.09375 37.027344 C 136.355469 37.414062 136.574219 37.824219 136.75 38.253906 C 136.929688 38.683594 137.0625 39.125 137.15625 39.582031 C 137.246094 40.039062 137.289062 40.5 137.289062 40.964844 C 137.289062 41.429688 137.246094 41.890625 137.152344 42.34375 C 137.0625 42.800781 136.929688 43.242188 136.75 43.671875 C 136.570312 44.101562 136.351562 44.511719 136.09375 44.898438 C 135.835938 45.285156 135.542969 45.640625 135.210938 45.972656 C 134.882812 46.300781 134.523438 46.59375 134.136719 46.851562 C 133.75 47.109375 133.34375 47.328125 132.910156 47.507812 C 132.480469 47.683594 132.039062 47.816406 131.582031 47.910156 C 131.125 48 130.664062 48.042969 130.199219 48.042969 Z M 130.199219 48.046875 " fill-opacity="1" fill-rule="nonzero"/><path fill="#010334" d="M 60.59375 28.808594 L 65.914062 28.808594 L 73.972656 43.921875 L 81.996094 28.808594 L 87.351562 28.808594 L 87.351562 53.113281 L 81.371094 53.113281 L 81.371094 40.128906 L 74.566406 53.113281 L 73.382812 53.113281 L 66.574219 40.160156 L 66.574219 53.113281 L 60.597656 53.113281 L 60.597656 28.808594 Z M 60.59375 28.808594 " fill-opacity="1" fill-rule="nonzero"/><path fill="#010334" d="M 42.539062 28.894531 L 36.539062 28.894531 L 36.539062 43.40625 C 36.539062 43.679688 36.511719 43.953125 36.457031 44.222656 C 36.402344 44.496094 36.324219 44.757812 36.21875 45.011719 C 36.113281 45.265625 35.984375 45.507812 35.832031 45.734375 C 35.675781 45.964844 35.503906 46.175781 35.308594 46.371094 C 35.113281 46.566406 34.902344 46.738281 34.671875 46.890625 C 34.441406 47.042969 34.199219 47.175781 33.945312 47.28125 C 33.691406 47.382812 33.429688 47.464844 33.160156 47.519531 C 32.890625 47.570312 32.617188 47.597656 32.339844 47.597656 C 32.066406 47.597656 31.792969 47.570312 31.519531 47.519531 C 31.25 47.464844 30.988281 47.382812 30.734375 47.28125 C 30.480469 47.175781 30.238281 47.042969 30.007812 46.890625 C 29.777344 46.738281 29.566406 46.566406 29.371094 46.371094 C 29.175781 46.175781 29.003906 45.964844 28.851562 45.734375 C 28.695312 45.507812 28.566406 45.265625 28.460938 45.011719 C 28.355469 44.757812 28.277344 44.496094 28.222656 44.222656 C 28.167969 43.953125 28.144531 43.679688 28.144531 43.40625 L 22.144531 43.40625 C 22.144531 44.074219 22.210938 44.738281 22.34375 45.394531 C 22.472656 46.050781 22.664062 46.6875 22.921875 47.304688 C 23.179688 47.921875 23.492188 48.507812 23.863281 49.0625 C 24.234375 49.621094 24.660156 50.132812 25.132812 50.605469 C 25.605469 51.078125 26.121094 51.503906 26.675781 51.875 C 27.234375 52.246094 27.820312 52.558594 28.441406 52.816406 C 29.058594 53.070312 29.695312 53.261719 30.351562 53.394531 C 31.011719 53.523438 31.671875 53.589844 32.34375 53.589844 C 33.011719 53.589844 33.675781 53.523438 34.332031 53.394531 C 34.988281 53.261719 35.625 53.070312 36.246094 52.816406 C 36.863281 52.558594 37.449219 52.246094 38.007812 51.875 C 38.5625 51.503906 39.078125 51.078125 39.550781 50.605469 C 40.027344 50.132812 40.449219 49.621094 40.820312 49.0625 C 41.191406 48.507812 41.507812 47.921875 41.761719 47.304688 C 42.019531 46.6875 42.210938 46.050781 42.34375 45.394531 C 42.472656 44.738281 42.539062 44.074219 42.539062 43.40625 Z M 42.539062 28.894531 " fill-opacity="1" fill-rule="nonzero"/><path fill="#010334" d="M 102.289062 28.808594 L 93.296875 28.808594 L 93.296875 53.113281 L 102.289062 53.113281 C 103.089844 53.113281 103.878906 53.035156 104.664062 52.878906 C 105.449219 52.726562 106.207031 52.496094 106.945312 52.1875 C 107.683594 51.882812 108.386719 51.507812 109.050781 51.066406 C 109.714844 50.621094 110.328125 50.117188 110.894531 49.554688 C 111.460938 48.992188 111.964844 48.375 112.40625 47.714844 C 112.851562 47.050781 113.226562 46.347656 113.53125 45.613281 C 113.839844 44.875 114.070312 44.113281 114.226562 43.332031 C 114.378906 42.550781 114.457031 41.757812 114.457031 40.960938 C 114.457031 40.164062 114.378906 39.375 114.226562 38.589844 C 114.070312 37.808594 113.839844 37.046875 113.53125 36.3125 C 113.226562 35.574219 112.851562 34.875 112.40625 34.210938 C 111.964844 33.546875 111.460938 32.933594 110.894531 32.367188 C 110.328125 31.804688 109.714844 31.300781 109.050781 30.855469 C 108.386719 30.414062 107.683594 30.039062 106.945312 29.734375 C 106.207031 29.429688 105.449219 29.199219 104.664062 29.042969 C 103.878906 28.886719 103.089844 28.808594 102.289062 28.808594 Z M 101.558594 48.042969 L 99.292969 48.042969 L 99.292969 33.878906 L 101.558594 33.878906 C 102.027344 33.878906 102.488281 33.921875 102.945312 34.015625 C 103.398438 34.105469 103.84375 34.238281 104.273438 34.417969 C 104.703125 34.59375 105.113281 34.8125 105.5 35.070312 C 105.886719 35.328125 106.246094 35.625 106.574219 35.953125 C 106.90625 36.28125 107.199219 36.640625 107.457031 37.027344 C 107.714844 37.414062 107.933594 37.820312 108.113281 38.25 C 108.289062 38.679688 108.425781 39.125 108.515625 39.578125 C 108.605469 40.035156 108.652344 40.496094 108.652344 40.960938 C 108.652344 41.425781 108.605469 41.886719 108.515625 42.34375 C 108.425781 42.800781 108.289062 43.242188 108.113281 43.671875 C 107.933594 44.101562 107.714844 44.511719 107.457031 44.898438 C 107.199219 45.285156 106.90625 45.640625 106.574219 45.96875 C 106.246094 46.300781 105.886719 46.59375 105.5 46.851562 C 105.113281 47.109375 104.703125 47.328125 104.273438 47.503906 C 103.84375 47.683594 103.398438 47.816406 102.945312 47.910156 C 102.488281 48 102.027344 48.042969 101.558594 48.042969 Z M 101.558594 48.042969 " fill-opacity="1" fill-rule="nonzero"/><path fill="#010334" d="M 48.535156 28.894531 L 54.558594 28.894531 L 54.558594 53.03125 L 48.535156 53.03125 Z M 48.535156 28.894531 " fill-opacity="1" fill-rule="nonzero"/><g clip-path="url(#e8f35e6110)"><path fill="#010334" d="M 152.558594 17.375 L 152.558594 64.546875 L 12.441406 64.546875 L 12.441406 17.375 L 152.558594 17.375 M 156.1875 13.75 L 8.8125 13.75 L 8.8125 68.171875 L 156.1875 68.171875 Z M 156.1875 13.75 " fill-opacity="1" fill-rule="nonzero"/></g></svg>